<svg xmlns="http://www.w3.org/2000/svg" width="48" height="48" viewBox="0 0 48 48">
    <g id="delivered" transform="translate(-71 -428)">
        <circle id="Ellipse_43" cx="24" cy="24" r="24" transform="translate(71 428)"
            fill="#fff3d9" />
        <g id="delivery-man" transform="translate(83.001 440)">
            <path id="Path_152"
                d="M19.709,15.116c-.1,0-.209,0-.312.011L18.182,9.8l-.341-1.494h.53a1.264,1.264,0,0,1,1.263,1.263v.889a.712.712,0,1,0,1.424,0V9.571a2.69,2.69,0,0,0-2.687-2.687H16.944a.712.712,0,0,0-.255.049L13.42,8.216V4.379a2.193,2.193,0,1,0-1.6-.7l-.627,1.29L6.015,2.445a.712.712,0,0,0-.952.328L2.23,8.582a.712.712,0,0,0,.328.952l5.187,2.53-1.652,3.3a4.593,4.593,0,1,0,3.038,5.054h6.041a4.593,4.593,0,1,0,4.538-5.305ZM16.438,8.561l.7,3.076h-7.6L12,6.575V9.26a.712.712,0,0,0,.972.663Zm-4.36,9.556L9.55,13.061h5.056ZM13.42,1.424a.765.765,0,1,1-.347,1.446l-.043-.024a.765.765,0,0,1,.39-1.423ZM6.031,4.037l4.529,2.209L8.351,10.775,3.822,8.566ZM4.593,22.879a3.169,3.169,0,1,1,.855-6.22L4.081,19.391a.712.712,0,0,0,.637,1.03H7.68a3.174,3.174,0,0,1-3.088,2.457ZM7.68,19H5.87L6.7,17.343A3.173,3.173,0,0,1,7.68,19Zm1.45,0A4.6,4.6,0,0,0,7.35,16.038l1.048-2.1L10.926,19ZM16.2,13.061h1.267l.543,2.381A4.608,4.608,0,0,0,15.171,19H13.23Zm3.511,9.817a3.169,3.169,0,0,1-1.378-6.023l.684,2.995a.712.712,0,0,0,1.388-.317l-.683-2.993a3.169,3.169,0,0,1-.011,6.338Zm0,0"
                fill="#fbaf03" />
            <path id="Path_153"
                d="M.72,22.1H3.327a.712.712,0,0,0,0-1.424H.72a.712.712,0,0,0,0,1.424Zm0,0"
                transform="translate(-0.008 -19.698)" fill="#fbaf03" />
            <path id="Path_154"
                d="M.72,81.592H2.207a.712.712,0,0,0,0-1.424H.72a.712.712,0,0,0,0,1.424Zm0,0"
                transform="translate(-0.008 -76.363)" fill="#fbaf03" />
        </g>
    </g>
</svg>
